<svg xmlns="http://www.w3.org/2000/svg" viewBox="0 0 554.54 141.24"><defs><style>.cls-1{fill:#233b77;}.cls-2{fill:#cc2037;}.cls-3{fill:none;stroke:#233b77;stroke-linecap:round;stroke-miterlimit:10;stroke-width:3px;}</style></defs><g id="Logo_Big"><path class="cls-1" d="M961.66,353.83a6,6,0,0,1,0-5.84l5-8.78a39.1,39.1,0,1,1,32.77-66.28l17.13-17.14a63.33,63.33,0,1,0-49.32,107.83Z" transform="translate(-908.29 -229.73)"/><path class="cls-2" d="M1033.78,288.13H982a14.82,14.82,0,1,0-.23,23.82H1009a39.26,39.26,0,0,1-28.35,26.51L975.27,348a6,6,0,0,0,0,5.84l5.28,9.32a63.33,63.33,0,0,0,53.23-75Z" transform="translate(-908.29 -229.73)"/><path class="cls-1" d="M1143.63,271.54a12.13,12.13,0,0,0-5.17-5.08,16.88,16.88,0,0,0-7.94-1.76q-7.89,0-12.64,5.18t-4.75,13.82q0,9.23,5,14.4t13.73,5.18a16.58,16.58,0,0,0,10.12-3,17.23,17.23,0,0,0,6-8.75h-20.62v-12h35.35v15.11a31.94,31.94,0,0,1-6.13,11.31,32.61,32.61,0,0,1-11,8.46,34,34,0,0,1-15,3.23A35.46,35.46,0,0,1,1113,313.3a30.8,30.8,0,0,1-12.07-12,38,38,0,0,1,0-35.2,30.73,30.73,0,0,1,12-12.07,35.3,35.3,0,0,1,17.58-4.33q12,0,20.19,5.8a27.33,27.33,0,0,1,10.88,16.06Z" transform="translate(-908.29 -229.73)"/><path class="cls-1" d="M1188,304.61h21.29v12.54h-37.54V250.44H1188Z" transform="translate(-908.29 -229.73)"/><path class="cls-1" d="M1231.39,313.45a32.68,32.68,0,0,1-12.45-12.22,35.9,35.9,0,0,1,0-35.2,32.76,32.76,0,0,1,12.45-12.17,36.21,36.21,0,0,1,34.49,0A32.11,32.11,0,0,1,1278.24,266a36.42,36.42,0,0,1,0,35.2,32.49,32.49,0,0,1-12.35,12.22,36.13,36.13,0,0,1-34.45,0Zm30-15.78q4.8-5.32,4.8-14.06t-4.8-14.11q-4.8-5.28-12.78-5.28t-12.88,5.23q-4.8,5.22-4.8,14.16t4.8,14.11q4.8,5.26,12.88,5.27T1261.42,297.67Z" transform="translate(-908.29 -229.73)"/><path class="cls-1" d="M1341.48,288.69A16.35,16.35,0,0,1,1345,299q0,8.37-5.84,13.26t-16.3,4.89h-31.07V250.44h30q10.17,0,15.91,4.66a16.9,16.9,0,0,1,2.67,22.43,16,16,0,0,1-8.22,5.41A15.57,15.57,0,0,1,1341.48,288.69ZM1308,277.43h10.64a9.37,9.37,0,0,0,6.13-1.76,6.3,6.3,0,0,0,2.14-5.18,6.43,6.43,0,0,0-2.14-5.22,9.26,9.26,0,0,0-6.13-1.81H1308Zm18.29,24.76a6.59,6.59,0,0,0,2.23-5.37,6.9,6.9,0,0,0-2.32-5.52,9.56,9.56,0,0,0-6.42-2H1308V304h12A9.66,9.66,0,0,0,1326.32,302.19Z" transform="translate(-908.29 -229.73)"/><path class="cls-1" d="M1395.93,305.37H1371l-4,11.78h-17l24.14-66.71H1393l24.14,66.71h-17.2Zm-4.18-12.54-8.27-24.43-8.17,24.43Z" transform="translate(-908.29 -229.73)"/><path class="cls-1" d="M1440.69,304.61H1462v12.54h-37.53V250.44h16.25Z" transform="translate(-908.29 -229.73)"/><path class="cls-2" d="M1103.46,343.25a11.08,11.08,0,0,1,4.18-4.25,11.58,11.58,0,0,1,5.89-1.53,12,12,0,0,1,6.63,1.83,10.54,10.54,0,0,1,4.14,5.2h-3.64a7.23,7.23,0,0,0-2.78-3.23,8,8,0,0,0-4.35-1.14,8.43,8.43,0,0,0-4.37,1.14,7.94,7.94,0,0,0-3,3.22,11.31,11.31,0,0,0,0,9.73,7.94,7.94,0,0,0,3,3.22,8.42,8.42,0,0,0,4.37,1.13,8.18,8.18,0,0,0,4.35-1.11,7.2,7.2,0,0,0,2.78-3.22h3.64a10.46,10.46,0,0,1-4.14,5.15,12,12,0,0,1-6.63,1.82,11.67,11.67,0,0,1-5.89-1.52,11,11,0,0,1-4.18-4.22,12.89,12.89,0,0,1,0-12.22Z" transform="translate(-908.29 -229.73)"/><path class="cls-2" d="M1142.17,359.72a11.13,11.13,0,0,1-4.22-4.23,12.86,12.86,0,0,1,0-12.24,11.13,11.13,0,0,1,4.22-4.23,12.29,12.29,0,0,1,11.84,0,10.92,10.92,0,0,1,4.2,4.22,13.07,13.07,0,0,1,0,12.27,11,11,0,0,1-4.2,4.21,12.29,12.29,0,0,1-11.84,0Zm10.29-2.25a8,8,0,0,0,3.07-3.23,11.26,11.26,0,0,0,0-9.75,8.06,8.06,0,0,0-3.06-3.22,9.06,9.06,0,0,0-8.8,0,8,8,0,0,0-3.05,3.22,11.17,11.17,0,0,0,0,9.75,8,8,0,0,0,3.07,3.23,9,9,0,0,0,8.77,0Z" transform="translate(-908.29 -229.73)"/><path class="cls-2" d="M1196.06,337.93V361h-3V343.8L1185.35,361h-2.13l-7.7-17.24V361h-3V337.93h3.27l8.54,19.08,8.53-19.08Z" transform="translate(-908.29 -229.73)"/><path class="cls-2" d="M1223.49,349.39c-1.33,1.28-3.34,1.91-6.06,1.91H1213V361h-3V337.77h7.5c2.63,0,4.62.63,6,1.9a6.36,6.36,0,0,1,2,4.9A6.44,6.44,0,0,1,1223.49,349.39Zm-2.32-1.69a4,4,0,0,0,1.2-3.13q0-4.31-4.94-4.3H1213v8.53h4.46A5.38,5.38,0,0,0,1221.17,347.7Z" transform="translate(-908.29 -229.73)"/><path class="cls-2" d="M1240.94,337.77v14.7a6.22,6.22,0,0,0,1.52,4.6,5.74,5.74,0,0,0,4.22,1.5,5.68,5.68,0,0,0,4.18-1.5,6.22,6.22,0,0,0,1.52-4.6v-14.7h3v14.67a9.45,9.45,0,0,1-1.17,4.88,7.28,7.28,0,0,1-3.15,2.95,10.72,10.72,0,0,1-8.91,0,7.18,7.18,0,0,1-3.13-2.95,9.55,9.55,0,0,1-1.15-4.88V337.77Z" transform="translate(-908.29 -229.73)"/><path class="cls-2" d="M1283.53,337.77v2.46h-6.34V361h-3V340.23h-6.37v-2.46Z" transform="translate(-908.29 -229.73)"/><path class="cls-2" d="M1299,340.23V348h8.47v2.5H1299v8h9.47V361H1296V337.73h12.5v2.5Z" transform="translate(-908.29 -229.73)"/><path class="cls-2" d="M1334.08,361l-5.54-9.51h-3.67V361h-3V337.77h7.5a9.94,9.94,0,0,1,4.45.9,6.23,6.23,0,0,1,2.72,2.43,6.78,6.78,0,0,1,.9,3.5,6.88,6.88,0,0,1-1.38,4.24,6.77,6.77,0,0,1-4.15,2.43l5.83,9.74Zm-9.21-11.94h4.47a5,5,0,0,0,3.7-1.22,4.33,4.33,0,0,0,1.24-3.25,4.17,4.17,0,0,0-1.22-3.2,5.32,5.32,0,0,0-3.72-1.13h-4.47Z" transform="translate(-908.29 -229.73)"/><path class="cls-2" d="M1371.31,359.24a31.34,31.34,0,0,1,.1-21.16,21.2,21.2,0,0,1,5.39-8.22H1380v.3a22.4,22.4,0,0,0-5.62,8.42,28.48,28.48,0,0,0-1.88,10.22,27.53,27.53,0,0,0,1.78,9.87,23.8,23.8,0,0,0,5.22,8.24v.3h-3.17A21.32,21.32,0,0,1,1371.31,359.24Z" transform="translate(-908.29 -229.73)"/><path class="cls-2" d="M1406.32,350.07a6.13,6.13,0,0,1,1.67,2.07,6,6,0,0,1-.28,5.82,6.14,6.14,0,0,1-2.62,2.23,9.3,9.3,0,0,1-4,.82h-8.67V337.77h8.33a9.48,9.48,0,0,1,4,.78,5.72,5.72,0,0,1,2.5,2.12,5.51,5.51,0,0,1,.83,3,5.21,5.21,0,0,1-1.11,3.42,6.29,6.29,0,0,1-3,2A4.92,4.92,0,0,1,1406.32,350.07Zm-10.92-2.27h5.1a4.92,4.92,0,0,0,3.31-1,3.88,3.88,0,0,0,0-5.53,5,5,0,0,0-3.37-1h-5Zm8.91,9.64a3.68,3.68,0,0,0,1.26-3,3.77,3.77,0,0,0-1.33-3.05,5.41,5.41,0,0,0-3.57-1.12h-5.27v8.21h5.37A5.36,5.36,0,0,0,1404.31,357.44Z" transform="translate(-908.29 -229.73)"/><path class="cls-2" d="M1435.37,339.18a10,10,0,0,1,4.27,4.06,13.68,13.68,0,0,1,0,12.38,9.78,9.78,0,0,1-4.27,4,14.55,14.55,0,0,1-6.59,1.39h-7.23V337.77h7.23A14.42,14.42,0,0,1,1435.37,339.18Zm.28,16.94a9.07,9.07,0,0,0,2.37-6.68,9.26,9.26,0,0,0-2.39-6.77c-1.59-1.62-3.87-2.44-6.85-2.44h-4.2v18.28h4.2Q1433.28,358.51,1435.65,356.12Z" transform="translate(-908.29 -229.73)"/><path class="cls-2" d="M1452.89,367.21v-.3a23.8,23.8,0,0,0,5.22-8.24,27.53,27.53,0,0,0,1.78-9.87,28.26,28.26,0,0,0-1.88-10.22,22.4,22.4,0,0,0-5.62-8.42v-.3h3.17a21.31,21.31,0,0,1,5.39,8.22,30.24,30.24,0,0,1,1.88,10.72,29.89,29.89,0,0,1-1.79,10.44,21.2,21.2,0,0,1-5,8Z" transform="translate(-908.29 -229.73)"/><line class="cls-3" x1="157.91" y1="1.5" x2="157.91" y2="139.74"/></g></svg>