<svg id="logo_mini_bnw" xmlns="http://www.w3.org/2000/svg" viewBox="0 0 321.46 321.02"><defs><style>.cls-1{fill:#fff;}</style></defs><path class="cls-1" d="M370.68,1105.51a15,15,0,0,1,0-14.8l12.62-22.28A99.32,99.32,0,0,1,297,963.35c3.2-48.4,41.79-87.88,90.11-92.1a99,99,0,0,1,79.29,29l43.48-43.48a160.28,160.28,0,0,0-124.27-47.12c-80,5.05-144.74,69.58-150,149.6-5.89,89.66,62.22,165,149.13,171.1Z" transform="translate(-235.27 -809.33)"/><path class="cls-1" d="M553.66,938.84H422.19a37.58,37.58,0,1,0-.58,60.44h69.2a99.57,99.57,0,0,1-71.92,67.27l-13.68,24.15a15,15,0,0,0,0,14.8l13.4,23.66c78-11,138.12-78.15,138.12-159.1A160.71,160.71,0,0,0,553.66,938.84Z" transform="translate(-235.27 -809.33)"/></svg>