<svg id="logo_mini" xmlns="http://www.w3.org/2000/svg" viewBox="0 0 321.46 321.02"><defs><style>.cls-1{fill:#233b77;}.cls-2{fill:#cc2037;}</style></defs><path class="cls-1" d="M370.68,426.36a15,15,0,0,1,0-14.81l12.62-22.28A99.31,99.31,0,0,1,297,284.19c3.2-48.4,41.79-87.88,90.11-92.1a98.93,98.93,0,0,1,79.29,29l43.48-43.49a160.27,160.27,0,0,0-124.27-47.11c-80,5.05-144.74,69.58-150,149.59-5.89,89.66,62.22,165.06,149.13,171.1Z" transform="translate(-235.27 -130.18)"/><path class="cls-2" d="M553.66,259.69H422.19a37.58,37.58,0,1,0-.58,60.43h69.2a99.55,99.55,0,0,1-71.92,67.27l-13.68,24.15a15,15,0,0,0,0,14.81L418.61,450c78-11,138.12-78.16,138.12-159.11A160.61,160.61,0,0,0,553.66,259.69Z" transform="translate(-235.27 -130.18)"/></svg>