<svg id="logo_big_bnw" xmlns="http://www.w3.org/2000/svg" viewBox="0 0 554.54 141.24"><defs><style>.cls-1{fill:#fff;}.cls-2{fill:none;stroke:#fff;stroke-linecap:round;stroke-miterlimit:10;stroke-width:3px;}</style></defs><path class="cls-1" d="M977.53,1039a6,6,0,0,1,0-5.84l5-8.78a39.1,39.1,0,1,1,32.76-66.28l17.14-17.14a63.33,63.33,0,1,0-49.33,107.83Z" transform="translate(-924.16 -914.87)"/><path class="cls-1" d="M1049.66,973.27H997.84a14.82,14.82,0,1,0-.23,23.82h27.27a39.22,39.22,0,0,1-28.35,26.51l-5.39,9.52a6,6,0,0,0,0,5.84l5.28,9.32a63.32,63.32,0,0,0,53.24-75Z" transform="translate(-924.16 -914.87)"/><path class="cls-1" d="M1159.51,956.68a12.23,12.23,0,0,0-5.18-5.09,17,17,0,0,0-7.94-1.75q-7.89,0-12.63,5.18T1129,968.84q0,9.23,5,14.4t13.73,5.18a16.62,16.62,0,0,0,10.12-3,17.23,17.23,0,0,0,6-8.75h-20.62v-12h35.35v15.11a31.94,31.94,0,0,1-6.13,11.31,32.42,32.42,0,0,1-11,8.46,34,34,0,0,1-15,3.23,35.46,35.46,0,0,1-17.63-4.33,30.86,30.86,0,0,1-12.07-12,38,38,0,0,1,0-35.21,30.84,30.84,0,0,1,12-12.06,35.22,35.22,0,0,1,17.58-4.33q12,0,20.2,5.8a27.37,27.37,0,0,1,10.88,16.06Z" transform="translate(-924.16 -914.87)"/><path class="cls-1" d="M1203.88,989.75h21.29v12.54h-37.54V935.58h16.25Z" transform="translate(-924.16 -914.87)"/><path class="cls-1" d="M1247.26,998.59a32.82,32.82,0,0,1-12.45-12.22,36,36,0,0,1,0-35.2A32.9,32.9,0,0,1,1247.26,939a36.23,36.23,0,0,1,34.5,0,32.16,32.16,0,0,1,12.35,12.17,36.42,36.42,0,0,1,0,35.2,32.49,32.49,0,0,1-12.35,12.22,36.13,36.13,0,0,1-34.45,0Zm30-15.78q4.8-5.32,4.8-14.06t-4.8-14.11q-4.8-5.28-12.78-5.28t-12.88,5.23q-4.8,5.22-4.79,14.16t4.79,14.11q4.8,5.26,12.88,5.27T1277.29,982.81Z" transform="translate(-924.16 -914.87)"/><path class="cls-1" d="M1357.35,973.83a16.36,16.36,0,0,1,3.52,10.31q0,8.37-5.85,13.26t-16.3,4.89h-31.07V935.58h30q10.17,0,15.92,4.66a16.89,16.89,0,0,1,2.66,22.43,16,16,0,0,1-8.22,5.41A15.54,15.54,0,0,1,1357.35,973.83Zm-33.45-11.26h10.64a9.35,9.35,0,0,0,6.13-1.76,6.3,6.3,0,0,0,2.14-5.18,6.43,6.43,0,0,0-2.14-5.22,9.19,9.19,0,0,0-6.13-1.81H1323.9Zm18.29,24.75a6.56,6.56,0,0,0,2.24-5.36,6.89,6.89,0,0,0-2.33-5.52,9.54,9.54,0,0,0-6.42-2H1323.9v14.73h12A9.6,9.6,0,0,0,1342.19,987.32Z" transform="translate(-924.16 -914.87)"/><path class="cls-1" d="M1411.8,990.51h-24.9l-4,11.78h-17L1390,935.58h18.81l24.14,66.71h-17.2ZM1407.62,978l-8.27-24.42L1391.18,978Z" transform="translate(-924.16 -914.87)"/><path class="cls-1" d="M1456.56,989.75h21.28v12.54h-37.53V935.58h16.25Z" transform="translate(-924.16 -914.87)"/><path class="cls-1" d="M1119.33,1028.39a11.15,11.15,0,0,1,4.18-4.25,11.58,11.58,0,0,1,5.89-1.53,12,12,0,0,1,6.64,1.83,10.58,10.58,0,0,1,4.13,5.2h-3.63a7.31,7.31,0,0,0-2.79-3.23,8,8,0,0,0-4.35-1.14,8.45,8.45,0,0,0-4.37,1.14,7.86,7.86,0,0,0-3,3.22,11.31,11.31,0,0,0,0,9.73,7.92,7.92,0,0,0,3,3.22,8.45,8.45,0,0,0,4.37,1.13,8.18,8.18,0,0,0,4.35-1.11,7.28,7.28,0,0,0,2.79-3.22h3.63a10.49,10.49,0,0,1-4.13,5.15,12.06,12.06,0,0,1-6.64,1.82,11.67,11.67,0,0,1-5.89-1.52,11.07,11.07,0,0,1-4.18-4.22,12.89,12.89,0,0,1,0-12.22Z" transform="translate(-924.16 -914.87)"/><path class="cls-1" d="M1158,1044.86a11,11,0,0,1-4.21-4.23,12.78,12.78,0,0,1,0-12.24,11,11,0,0,1,4.21-4.23,12.29,12.29,0,0,1,11.84,0,11,11,0,0,1,4.2,4.21,13,13,0,0,1,0,12.28,11,11,0,0,1-4.2,4.21,12.29,12.29,0,0,1-11.84,0Zm10.29-2.25a8,8,0,0,0,3.07-3.23,11.17,11.17,0,0,0,0-9.75,8,8,0,0,0-3.05-3.22,9.08,9.08,0,0,0-8.81,0,8,8,0,0,0-3,3.22,11.26,11.26,0,0,0,0,9.75,8,8,0,0,0,3.07,3.23,9,9,0,0,0,8.77,0Z" transform="translate(-924.16 -914.87)"/><path class="cls-1" d="M1211.93,1023.07v23.08h-3v-17.21l-7.67,17.21h-2.14l-7.7-17.24v17.24h-3v-23.08h3.26l8.54,19.08,8.54-19.08Z" transform="translate(-924.16 -914.87)"/><path class="cls-1" d="M1239.36,1034.53c-1.32,1.28-3.34,1.91-6,1.91h-4.47v9.71h-3v-23.24h7.51a8.49,8.49,0,0,1,6,1.9,6.36,6.36,0,0,1,2,4.9A6.44,6.44,0,0,1,1239.36,1034.53Zm-2.32-1.69a4,4,0,0,0,1.2-3.13q0-4.31-4.93-4.3h-4.47v8.53h4.47A5.35,5.35,0,0,0,1237,1032.84Z" transform="translate(-924.16 -914.87)"/><path class="cls-1" d="M1256.82,1022.91v14.7a6.22,6.22,0,0,0,1.51,4.6,6.64,6.64,0,0,0,8.41,0,6.22,6.22,0,0,0,1.51-4.6v-14.7h3v14.67a9.45,9.45,0,0,1-1.17,4.88,7.28,7.28,0,0,1-3.15,3,10.69,10.69,0,0,1-8.9,0,7.15,7.15,0,0,1-3.14-3,9.55,9.55,0,0,1-1.15-4.88v-14.67Z" transform="translate(-924.16 -914.87)"/><path class="cls-1" d="M1299.4,1022.91v2.46h-6.34v20.78h-3v-20.78h-6.37v-2.46Z" transform="translate(-924.16 -914.87)"/><path class="cls-1" d="M1314.9,1025.37v7.77h8.47v2.5h-8.47v8h9.47v2.5h-12.5v-23.28h12.5v2.5Z" transform="translate(-924.16 -914.87)"/><path class="cls-1" d="M1350,1046.15l-5.53-9.51h-3.67v9.51h-3v-23.24h7.51a10,10,0,0,1,4.45.9,6.26,6.26,0,0,1,2.71,2.43,6.69,6.69,0,0,1,.91,3.5,6.89,6.89,0,0,1-1.39,4.24,6.75,6.75,0,0,1-4.15,2.43l5.84,9.74Zm-9.2-11.94h4.47a5.05,5.05,0,0,0,3.7-1.22,4.36,4.36,0,0,0,1.23-3.25,4.17,4.17,0,0,0-1.22-3.2,5.26,5.26,0,0,0-3.71-1.13h-4.47Z" transform="translate(-924.16 -914.87)"/><path class="cls-1" d="M1387.18,1044.38a29.88,29.88,0,0,1-1.78-10.44,30.24,30.24,0,0,1,1.88-10.72,21.2,21.2,0,0,1,5.39-8.22h3.17v.3a22.17,22.17,0,0,0-5.62,8.42,28.27,28.27,0,0,0-1.89,10.22,27.54,27.54,0,0,0,1.79,9.87,23.51,23.51,0,0,0,5.22,8.24v.3h-3.17A21.22,21.22,0,0,1,1387.18,1044.38Z" transform="translate(-924.16 -914.87)"/><path class="cls-1" d="M1422.2,1035.21a6.11,6.11,0,0,1,1.66,2.07,6,6,0,0,1-.28,5.82,6.09,6.09,0,0,1-2.62,2.23,9.23,9.23,0,0,1-4,.82h-8.67v-23.24h8.34a9.47,9.47,0,0,1,4,.78,5.67,5.67,0,0,1,2.5,2.12,5.52,5.52,0,0,1,.84,3,5.21,5.21,0,0,1-1.12,3.42,6.29,6.29,0,0,1-2.95,2A5,5,0,0,1,1422.2,1035.21Zm-10.93-2.27h5.11a4.91,4.91,0,0,0,3.3-1,3.85,3.85,0,0,0,0-5.53,5,5,0,0,0-3.37-1h-5Zm8.91,9.64a3.68,3.68,0,0,0,1.27-3,3.78,3.78,0,0,0-1.34-3,5.41,5.41,0,0,0-3.57-1.12h-5.27v8.21h5.37A5.36,5.36,0,0,0,1420.18,1042.58Z" transform="translate(-924.16 -914.87)"/><path class="cls-1" d="M1451.24,1024.32a10,10,0,0,1,4.27,4,12.46,12.46,0,0,1,1.48,6.21,12.29,12.29,0,0,1-1.48,6.18,9.73,9.73,0,0,1-4.27,4,14.55,14.55,0,0,1-6.59,1.39h-7.23v-23.24h7.23A14.42,14.42,0,0,1,1451.24,1024.32Zm.28,16.94a9.07,9.07,0,0,0,2.37-6.68,9.25,9.25,0,0,0-2.38-6.77c-1.59-1.62-3.88-2.44-6.86-2.44h-4.2v18.28h4.2C1447.66,1043.65,1449.94,1042.85,1451.52,1041.26Z" transform="translate(-924.16 -914.87)"/><path class="cls-1" d="M1468.76,1052.35v-.3a23.8,23.8,0,0,0,5.22-8.24,27.54,27.54,0,0,0,1.79-9.87,28.27,28.27,0,0,0-1.89-10.22,22.28,22.28,0,0,0-5.62-8.42v-.3h3.17a21.2,21.2,0,0,1,5.39,8.22,30.24,30.24,0,0,1,1.88,10.72,29.88,29.88,0,0,1-1.78,10.44,21.22,21.22,0,0,1-5,8Z" transform="translate(-924.16 -914.87)"/><line class="cls-2" x1="157.91" y1="1.5" x2="157.91" y2="139.74"/></svg>