<svg xmlns="http://www.w3.org/2000/svg" viewBox="0 0 500 500"><defs><style>.cls-1{fill:#fff;}.cls-2{font-size:19px;font-family:Poppins-Medium, Poppins;font-weight:500;}.cls-2,.cls-3,.cls-6{fill:#405b91;}.cls-3{font-size:13px;font-family:Poppins-Regular, Poppins;}.cls-4{fill:#6cdd6c;}.cls-5{fill:#50aa50;}.cls-7,.cls-9{fill:#415b91;}.cls-10,.cls-8{fill:#b6d0fb;}.cls-8,.cls-9{fill-rule:evenodd;}.cls-11{fill:#3f5b91;}.cls-12{fill:#d7e7ff;}</style></defs><g id="BACKGROUND"><rect class="cls-1" width="500" height="500"/></g><g id="OBJECTS"><text class="cls-2" transform="translate(117.11 387.85)">We are Under Maintenance.</text><text class="cls-3" transform="translate(191.33 408.85)">Will be Back Soon!</text><path class="cls-4" d="M317.66,333.88a5.88,5.88,0,0,0-3.53-4A3.64,3.64,0,0,0,309.6,332c-1.62-1.35-4.09-.28-5.39,1.38-2.1,2.68-.47,7.07-.12,7.35a2.72,2.72,0,0,0,1.4.25l15.7-.08a19.58,19.58,0,0,0,4.21-.74c2.68-1.07,4.5-5.68,2.78-8-1.18-1.58-3.49-1.91-5.36-1.32a15.06,15.06,0,0,0-5.16,3.07"/><path class="cls-5" d="M305.26,341.46a2.57,2.57,0,0,1-1.5-.38c-.62-.5-2.18-5.23,0-8.07a5.68,5.68,0,0,1,3.67-2.17,3.36,3.36,0,0,1,1.9.34,3.74,3.74,0,0,1,1.55-1.47,4.5,4.5,0,0,1,3.37-.3,6.07,6.07,0,0,1,3.6,3.59,15.11,15.11,0,0,1,4.77-2.68c1.87-.6,4.53-.39,5.93,1.5a5,5,0,0,1,.52,4.39,6.67,6.67,0,0,1-3.51,4.38,20.05,20.05,0,0,1-4.37.77l-15.74.09Zm2.61-9.6a1.46,1.46,0,0,0-.29,0,4.61,4.61,0,0,0-3,1.77c-1.84,2.35-.47,6.27-.17,6.67a3.11,3.11,0,0,0,1,.1l15.73-.09a19.07,19.07,0,0,0,4-.71,5.66,5.66,0,0,0,2.9-3.69,4,4,0,0,0-.35-3.49c-1.1-1.48-3.25-1.62-4.78-1.13a14.48,14.48,0,0,0-5,3,.5.5,0,0,1-.48.11.53.53,0,0,1-.36-.35,5.3,5.3,0,0,0-3.19-3.64,3.44,3.44,0,0,0-2.57.24,2.55,2.55,0,0,0-1.31,1.48.52.52,0,0,1-.34.34.52.52,0,0,1-.48-.1A2.1,2.1,0,0,0,307.87,331.86Z"/><path class="cls-5" d="M301.14,333.28a4.9,4.9,0,0,0-.53,2.81c.05.49.83.5.78,0a4.18,4.18,0,0,1,.42-2.41c.23-.45-.44-.84-.67-.4Z"/><path class="cls-5" d="M298.87,333.91a5.4,5.4,0,0,0-.06,2.65c.1.49.85.28.75-.21a4.55,4.55,0,0,1,.06-2.23.39.39,0,0,0-.75-.21Z"/><path class="cls-5" d="M303.24,332.33a.39.39,0,0,0,0-.78.39.39,0,0,0,0,.78Z"/><path class="cls-5" d="M305.44,336.09v.69a.39.39,0,0,0,.78,0v-.69a.39.39,0,0,0-.78,0Z"/><path class="cls-5" d="M318.58,337.3v.35a.39.39,0,0,0,.77,0v-.35a.39.39,0,0,0-.77,0Z"/><path class="cls-5" d="M317.14,336.36l.17.18a.39.39,0,0,0,.55-.55l-.17-.18c-.36-.35-.91.2-.55.55Z"/><path class="cls-6" d="M96.12,319.22H69.79a1,1,0,1,1,0-2.07H96.12a1,1,0,0,1,0,2.07Z"/><path class="cls-1" d="M328,227.91h-.75a1.13,1.13,0,0,0-2.26,0h-.75a1.88,1.88,0,0,1,3.76,0Z"/><path class="cls-1" d="M330.65,184.12h-.75a1.13,1.13,0,0,0-2.26,0h-.75a1.88,1.88,0,0,1,3.76,0Z"/><path class="cls-7" d="M237,336.27H201.26l.6-1.44c2.35-5.56,2.59-10.33,2.24-15.77L204,318l30.18-.09v1a70.81,70.81,0,0,0,2.41,16Zm-32.69-2.07h29.9a78.37,78.37,0,0,1-2.09-14.26l-25.93.08A33.72,33.72,0,0,1,204.35,334.2Z"/><path class="cls-7" d="M191,319.92c-27.17,0-49.18-.14-50.14-.49-2.33-.83-5.37-4.05-5.41-6.34-.09-4.95-.3-11.69-.55-19.5-.74-23.53-1.76-55.77-.44-73.61a6.19,6.19,0,0,1,6.14-5.76h.1l156.63.23a6.19,6.19,0,0,1,6.05,6.09c.12,5.21.29,10.54.46,15.93.72,22.6,1.46,46-1.05,68.07-.09.87-.14,1.83-.18,2.83-.21,4.63-.48,10.4-6.45,11.58C293.21,319.53,235.24,319.92,191,319.92Zm-50.39-104a4.53,4.53,0,0,0-4.49,4.22c-1.31,17.75-.29,49.93.45,73.43.25,7.81.46,14.56.55,19.52,0,1.45,2.44,4.14,4.3,4.8,3.33.68,150.59.18,154.42-.54,4.69-.93,4.9-5.55,5.1-10,0-1,.1-2,.2-2.94,2.49-22,1.75-45.29,1-67.82-.17-5.41-.34-10.73-.46-15.95a4.52,4.52,0,0,0-4.4-4.46l-156.62-.23Z"/><path class="cls-8" d="M292.92,219.85l-147.58-.2a4.83,4.83,0,0,0-5.08,4.16c-1.65,19.75.6,61,.94,77.55,0,1.62,2.67,4,4.57,4.64,2.24.71,142.48.17,145.91-.42,6.15-1.08,5.1-7.38,5.62-11.42,2.92-22.81,1.13-47.61.55-69.92A4.78,4.78,0,0,0,292.92,219.85Z"/><path class="cls-7" d="M249.85,342H188.44a3.81,3.81,0,0,1,0-7.62h61.41a3.81,3.81,0,0,1,0,7.62Zm-61.41-6a2.15,2.15,0,0,0,0,4.29h61.41a2.15,2.15,0,0,0,0-4.29Z"/><path class="cls-9" d="M145.68,312h0"/><path class="cls-7" d="M145.68,314.11c2.76,0,2.76-4.28,0-4.28s-2.76,4.28,0,4.28Z"/><path class="cls-9" d="M154.32,312h0"/><path class="cls-7" d="M154.32,314.11c2.76,0,2.76-4.28,0-4.28s-2.76,4.28,0,4.28Z"/><path class="cls-9" d="M163,312h0"/><path class="cls-7" d="M163,314.11c2.76,0,2.76-4.28,0-4.28s-2.76,4.28,0,4.28Z"/><path class="cls-9" d="M219.14,217.57h0"/><path class="cls-7" d="M219.14,218.57a1,1,0,0,0,0-2,1,1,0,0,0,0,2Z"/><polygon class="cls-10" points="392.32 337.88 371.16 337.88 379.3 311.15 384.18 311.15 392.32 337.88"/><rect class="cls-10" x="369.41" y="337.88" width="24.65" height="3.05"/><polygon class="cls-7" points="373.19 331.2 371.16 337.88 392.32 337.88 390.28 331.2 373.19 331.2"/><polygon class="cls-7" points="375.23 324.51 388.25 324.51 386.21 317.83 377.26 317.83 375.23 324.51"/><path class="cls-10" d="M401,340.76h4.69V322.58h24.1v18.18h4.7V322.58h5V308.07h-4v-1.35h-6.84v1.35H407.27v-1.35h-6.84v1.35h-4.35v14.51H401Zm36.94-31.18v.06L435,321.07h-5.16l2.91-11.49Zm-13.46,11.49h-5.17l2.91-11.49h5.17Zm-10.58,0h-5.16l2.91-11.49h5.16ZM401,309.58h5.17l-2.91,11.49h-5.17Z"/><path class="cls-10" d="M170.05,163.05l1.4-1.41a.72.72,0,0,0,0-1l-1.22-1.22a1,1,0,0,1-.17-1.16l1-2.42a1,1,0,0,1,.94-.71h1.73a.73.73,0,0,0,.73-.72v-2a.73.73,0,0,0-.73-.72H172a1,1,0,0,1-.94-.71l-1-2.42a1,1,0,0,1,.17-1.16l1.22-1.22a.72.72,0,0,0,0-1l-1.4-1.41a.73.73,0,0,0-1,0l-1.22,1.22a1,1,0,0,1-1.16.17l-2.42-1a1,1,0,0,1-.7-.94v-1.73a.73.73,0,0,0-.73-.73h-2a.73.73,0,0,0-.73.73v1.73a1,1,0,0,1-.7.94l-2.43,1a1,1,0,0,1-1.16-.17l-1.22-1.22a.72.72,0,0,0-1,0l-1.41,1.41a.72.72,0,0,0,0,1l1.22,1.22a1,1,0,0,1,.17,1.16l-1,2.42a1,1,0,0,1-.94.71h-1.73a.73.73,0,0,0-.73.72v2a.73.73,0,0,0,.73.72h1.73a1,1,0,0,1,.94.71l1,2.42a1,1,0,0,1-.17,1.16l-1.22,1.22a.72.72,0,0,0,0,1l1.41,1.41a.72.72,0,0,0,1,0l1.22-1.22a1,1,0,0,1,1.16-.17l2.43,1a1,1,0,0,1,.7.94v1.73a.73.73,0,0,0,.73.73h2a.73.73,0,0,0,.73-.73V163.6a1,1,0,0,1,.7-.94l2.42-1a1,1,0,0,1,1.16.17l1.22,1.22A.73.73,0,0,0,170.05,163.05Zm-8.27-3.85a5.82,5.82,0,1,1,5.82-5.82A5.83,5.83,0,0,1,161.78,159.2Z"/><path class="cls-10" d="M183.5,168.55l-.35-1.18a.45.45,0,0,0-.57-.3l-1,.31a.66.66,0,0,1-.69-.25l-1-1.26a.66.66,0,0,1-.11-.71l.51-.95a.45.45,0,0,0-.18-.61L179,163a.45.45,0,0,0-.61.19l-.51,1a.66.66,0,0,1-.66.3l-1.61-.16a.65.65,0,0,1-.59-.43l-.31-1a.45.45,0,0,0-.56-.3l-1.18.36a.44.44,0,0,0-.3.56l.31,1a.64.64,0,0,1-.25.68l-1.26,1a.63.63,0,0,1-.71.11l-.95-.51a.45.45,0,0,0-.61.19l-.59,1.08a.47.47,0,0,0,.19.62l.95.51a.63.63,0,0,1,.3.65l-.16,1.62a.64.64,0,0,1-.43.58l-1,.31a.46.46,0,0,0-.3.57l.36,1.18a.45.45,0,0,0,.56.3l1-.31a.64.64,0,0,1,.68.25l1,1.25a.64.64,0,0,1,.11.72l-.51.95a.45.45,0,0,0,.19.61l1.08.58a.47.47,0,0,0,.62-.18l.5-1a.66.66,0,0,1,.66-.31l1.61.16a.63.63,0,0,1,.59.44l.31,1a.44.44,0,0,0,.56.3l1.19-.35a.47.47,0,0,0,.3-.57l-.31-1a.63.63,0,0,1,.24-.68l1.26-1a.68.68,0,0,1,.72-.11l.94.51a.46.46,0,0,0,.62-.18l.58-1.09a.45.45,0,0,0-.19-.61l-.94-.51a.64.64,0,0,1-.31-.65l.16-1.62a.66.66,0,0,1,.43-.59l1-.31A.45.45,0,0,0,183.5,168.55ZM179,171.93a3.61,3.61,0,1,1-1.47-4.88A3.6,3.6,0,0,1,179,171.93Z"/><path class="cls-6" d="M242.39,191.33h-32.6a1,1,0,1,1,0-2.07h32.6a1,1,0,1,1,0,2.07Z"/><path class="cls-6" d="M176,206.14H123.36a1,1,0,0,1,0-2.08H176a1,1,0,0,1,0,2.08Z"/><path class="cls-6" d="M428.5,234.18H375.84a1,1,0,1,1,0-2.08H428.5a1,1,0,1,1,0,2.08Z"/><path class="cls-6" d="M449.2,343H50.8a1,1,0,1,1,0-2.08H449.2a1,1,0,1,1,0,2.08Z"/><path class="cls-10" d="M303.06,178.3a8.37,8.37,0,0,0-7.21,12.6l.13.23-8.46,8.47a1.4,1.4,0,0,0-.42,1,1.81,1.81,0,0,0,.64,1.29,2,2,0,0,0,1.41.69,1.7,1.7,0,0,0,1-.34l8.45-8.45.23.13a8.37,8.37,0,1,0,4.23-15.58Zm0,14.25a5.88,5.88,0,1,1,0-11.76h0a5.88,5.88,0,0,1,0,11.76Z"/><path class="cls-10" d="M300,187.89H306v-1.55H300Z"/><path class="cls-6" d="M147.75,341.07a1,1,0,0,1-1-1V260.16a1,1,0,1,1,2.08,0V340A1,1,0,0,1,147.75,341.07Z"/><path class="cls-6" d="M166.31,341.07a1,1,0,0,1-1-1V260.16a1,1,0,1,1,2.08,0V340A1,1,0,0,1,166.31,341.07Z"/><path class="cls-6" d="M166.31,266.65H147.75a1,1,0,1,1,0-2.07h18.56a1,1,0,1,1,0,2.07Z"/><path class="cls-6" d="M166.31,275.78H147.75a1,1,0,0,1,0-2.08h18.56a1,1,0,0,1,0,2.08Z"/><path class="cls-6" d="M166.31,284.9H147.75a1,1,0,1,1,0-2.07h18.56a1,1,0,1,1,0,2.07Z"/><path class="cls-6" d="M166.31,294H147.75a1,1,0,0,1,0-2.08h18.56a1,1,0,0,1,0,2.08Z"/><path class="cls-6" d="M166.31,303.15H147.75a1,1,0,1,1,0-2.07h18.56a1,1,0,1,1,0,2.07Z"/><path class="cls-6" d="M166.31,312.28H147.75a1,1,0,0,1,0-2.08h18.56a1,1,0,0,1,0,2.08Z"/><path class="cls-6" d="M166.31,321.4H147.75a1,1,0,1,1,0-2.07h18.56a1,1,0,1,1,0,2.07Z"/><path class="cls-6" d="M166.31,330.53H147.75a1,1,0,0,1,0-2.08h18.56a1,1,0,0,1,0,2.08Z"/><path class="cls-6" d="M122.47,264a1,1,0,0,1-1-1v-4a1,1,0,1,1,2.08,0v4A1,1,0,0,1,122.47,264Z"/><path class="cls-6" d="M124.49,262h-4a1,1,0,1,1,0-2.07h4a1,1,0,1,1,0,2.07Z"/><path class="cls-6" d="M215.74,119.6a1,1,0,0,1-1-1v-4a1,1,0,1,1,2.07,0v4A1,1,0,0,1,215.74,119.6Z"/><path class="cls-6" d="M217.76,117.58h-4a1,1,0,0,1,0-2.08h4a1,1,0,0,1,0,2.08Z"/><path class="cls-6" d="M248.43,328.66a1,1,0,0,1-.29,0l-3.88-1.11a1,1,0,0,1-.71-1.28,1,1,0,0,1,1.28-.71l3.88,1.11a1,1,0,0,1-.28,2Z"/><path class="cls-6" d="M245.93,330.05a.9.9,0,0,1-.28,0,1,1,0,0,1-.71-1.28l1.11-3.89a1,1,0,0,1,2,.57l-1.11,3.89A1,1,0,0,1,245.93,330.05Z"/><path class="cls-6" d="M228,206.69a.9.9,0,0,1-.28,0l-3.89-1.11a1,1,0,0,1,.57-2l3.88,1.11a1,1,0,0,1-.28,2Z"/><path class="cls-6" d="M225.53,208.08a1,1,0,0,1-.28,0,1,1,0,0,1-.71-1.28l1.11-3.88a1,1,0,1,1,2,.57l-1.11,3.88A1,1,0,0,1,225.53,208.08Z"/><circle class="cls-10" cx="225.31" cy="168.47" r="14.41" transform="translate(-53.14 208.66) rotate(-45)"/><circle class="cls-1" cx="225.31" cy="168.47" r="10.79"/><path class="cls-6" d="M225.31,179.68a11.21,11.21,0,1,1,11.21-11.21A11.22,11.22,0,0,1,225.31,179.68Zm0-21.58a10.38,10.38,0,1,0,10.38,10.37A10.38,10.38,0,0,0,225.31,158.1Z"/><path class="cls-6" d="M225.31,168.89a.42.42,0,0,1-.42-.42V163a.42.42,0,0,1,.84,0v5.49A.42.42,0,0,1,225.31,168.89Z"/><path class="cls-6" d="M231.75,168.89h-6.44a.42.42,0,0,1-.42-.42.41.41,0,0,1,.42-.41h6.44a.41.41,0,0,1,.42.41A.42.42,0,0,1,231.75,168.89Z"/><path class="cls-6" d="M225.74,158.9a.43.43,0,1,1-.43-.43A.43.43,0,0,1,225.74,158.9Z"/><circle class="cls-6" cx="232.08" cy="161.7" r="0.43"/><path class="cls-6" d="M234.88,168.9a.43.43,0,1,1,.43-.43A.42.42,0,0,1,234.88,168.9Z"/><circle class="cls-6" cx="232.08" cy="175.24" r="0.43"/><path class="cls-6" d="M224.88,178.05a.43.43,0,1,1,.43.42A.43.43,0,0,1,224.88,178.05Z"/><path class="cls-6" d="M218.24,174.94a.43.43,0,0,1,.6,0,.42.42,0,1,1-.6,0Z"/><circle class="cls-6" cx="215.74" cy="168.47" r="0.43"/><path class="cls-6" d="M218.84,161.4a.43.43,0,0,1,0,.61.43.43,0,0,1-.6,0,.43.43,0,0,1,0-.61A.43.43,0,0,1,218.84,161.4Z"/><path class="cls-6" d="M246.39,163h-6a.42.42,0,1,1,0-.83h6a.42.42,0,0,1,0,.83Z"/><path class="cls-6" d="M246.39,174.81h-6a.42.42,0,0,1-.42-.42.41.41,0,0,1,.42-.41h6a.41.41,0,0,1,.41.41A.41.41,0,0,1,246.39,174.81Z"/><path class="cls-6" d="M253.91,168.89h-11.3a.42.42,0,1,1,0-.83h11.3a.42.42,0,0,1,0,.83Z"/><rect class="cls-1" x="266.94" y="324.51" width="6.68" height="6.68"/><path class="cls-7" d="M274.14,331.72h-7.72V324h7.72Zm-6.68-1h5.64V325h-5.64Z"/><path class="cls-6" d="M282.08,326H276a.41.41,0,0,1-.42-.41.42.42,0,0,1,.42-.42h6.05a.42.42,0,0,1,.42.42A.41.41,0,0,1,282.08,326Z"/><path class="cls-6" d="M284.35,330.56h-8.17c-.32,0-.57-.18-.57-.41s.25-.42.57-.42h8.17c.31,0,.57.18.57.42S284.66,330.56,284.35,330.56Z"/><path class="cls-6" d="M287.33,328.14H276a.41.41,0,0,1-.42-.41.42.42,0,0,1,.42-.42h11.3a.42.42,0,0,1,.42.42A.41.41,0,0,1,287.33,328.14Z"/><rect class="cls-1" x="120.21" y="226.46" width="6.68" height="6.68" transform="translate(247.11 459.6) rotate(180)"/><path class="cls-7" d="M127.42,233.66H119.7v-7.72h7.72Zm-6.69-1h5.65V227h-5.65Z"/><path class="cls-6" d="M111.76,227.93h6a.42.42,0,0,0,0-.84h-6a.42.42,0,0,0,0,.84Z"/><path class="cls-6" d="M109.48,232.51h8.18c.31,0,.56-.19.56-.42s-.25-.42-.56-.42h-8.18c-.31,0-.56.19-.56.42S109.17,232.51,109.48,232.51Z"/><path class="cls-6" d="M106.51,230.09h11.3a.42.42,0,0,0,0-.84h-11.3a.42.42,0,0,0,0,.84Z"/><rect class="cls-11" x="324.01" y="251.57" width="2.07" height="89.19"/><rect class="cls-10" x="318.66" y="241.81" width="12.76" height="20.55" rx="6.15"/><path class="cls-11" d="M333.4,256.39l2.18.35c.49.08.7-.67.21-.75l-2.19-.35c-.49-.08-.7.67-.2.75Z"/><path class="cls-11" d="M333.32,251.64a6.19,6.19,0,0,1,1.72-.06c.5,0,.49-.73,0-.78a7.36,7.36,0,0,0-1.93.09c-.49.09-.28.84.21.75Z"/><path class="cls-11" d="M333.08,247.31l1.68-.67c.46-.18.26-.93-.21-.75l-1.67.67c-.46.18-.26.93.2.75Z"/><path class="cls-11" d="M314,257.12a9.56,9.56,0,0,0,1.68-.4c.47-.17.27-.92-.21-.75a9.66,9.66,0,0,1-1.67.4c-.5.06-.29.81.2.75Z"/><path class="cls-11" d="M313,251.59a8.35,8.35,0,0,1,2.11.32.39.39,0,0,0,.21-.75,9.58,9.58,0,0,0-2.32-.35.39.39,0,0,0,0,.78Z"/><path class="cls-11" d="M313.68,245.19l1.68.53c.48.16.68-.59.21-.75l-1.68-.53c-.48-.15-.68.6-.21.75Z"/><polygon class="cls-6" points="320.2 341.97 321.59 330.05 328.33 330.05 329.88 341.8 320.2 341.97"/><path class="cls-4" d="M129.87,284.89c-.31-1.89-1.65-6.78-4.6-5.23-4.78,2.5,1,12-4.78,13.69-.31-3.79-1.12-6.4-2.83-6.25-3.54.32-2.6,8.54-2.65,10.39s-.15,3.73-.24,5.63c-4.15.75-3.33-10.09-5.86-11.59-3.93-2.33-4.76,2.86-4.65,5.26.18,4.09,1.28,9,5.11,11.14a10.44,10.44,0,0,0,5.23,1.37,54.33,54.33,0,0,0,.66,9.61,0,0,0,0,0,.07,0h0l2.33.13v0a.8.8,0,0,0,1.59,0c0-2,1.24-11.64,1.38-19.84a8.36,8.36,0,0,0,5.54-1.57C130.13,294.75,130.6,289.4,129.87,284.89Z"/><path class="cls-5" d="M118.44,320.28a1.29,1.29,0,0,1-.67-.18,1.13,1.13,0,0,1-.51-.65l-1.71-.09-.63,0-.09-.39a53.36,53.36,0,0,1-.67-9.23,11.27,11.27,0,0,1-5-1.45c-4.09-2.31-5.17-7.53-5.34-11.5-.08-1.59.26-4.9,2.05-6a3.08,3.08,0,0,1,3.27.31c1.22.73,1.68,3,2.22,5.53.73,3.49,1.39,6,3,6l0-.86c.06-1.48.13-2.95.17-4.39,0-.28,0-.71,0-1.24-.11-3.24-.32-9.26,3.08-9.57a1.85,1.85,0,0,1,1.41.46c1,.8,1.56,2.64,1.85,5.62,2.15-.95,2-3.44,1.91-6.29s-.26-5.86,2.27-7.18a2.46,2.46,0,0,1,2.33-.11c2.11,1.06,2.84,5.2,2.91,5.66h0c.56,3.46.8,9.77-3.87,13.2a9.18,9.18,0,0,1-5.37,1.7c-.12,5.35-.67,11.25-1,15.18-.19,2-.33,3.54-.34,4.18a1.18,1.18,0,0,1-.61,1A1.32,1.32,0,0,1,118.44,320.28Zm-2.8-1.8,2.47.13V319c0,.21.07.27.12.3a.44.44,0,0,0,.43,0,.31.31,0,0,0,.16-.28c0-.68.15-2.18.34-4.25.37-4,.94-10.15,1-15.6v-.5l.5.08a8.07,8.07,0,0,0,5.2-1.49c4.3-3.15,4.06-9.09,3.53-12.34h0c-.23-1.43-1-4.32-2.43-5a1.59,1.59,0,0,0-1.53.1c-2,1.07-1.92,3.64-1.8,6.36.13,3,.28,6.39-3.06,7.37l-.51.15,0-.54c-.31-3.78-1-5.13-1.58-5.6a1.06,1.06,0,0,0-.77-.25c-2.57.24-2.37,5.92-2.28,8.66,0,.55,0,1,0,1.3,0,1.44-.11,2.91-.18,4.4l-.07,1.6-.35.06c-2.84.51-3.64-3.32-4.35-6.7-.46-2.18-.93-4.42-1.81-4.95a2.28,2.28,0,0,0-2.37-.31c-1.32.79-1.69,3.59-1.62,5.17.17,3.75,1.15,8.66,4.89,10.77a10,10,0,0,0,5,1.33l.49-.05v.49A54.18,54.18,0,0,0,115.64,318.48Z"/><path class="cls-7" d="M125.29,341H108.41a1.78,1.78,0,0,1-1.79-1.46l-3.83-19.68,1.59-.31,3.83,19.68a.18.18,0,0,0,.2.15h16.88a.18.18,0,0,0,.2-.15l3.81-19.68,1.59.31-3.8,19.68A1.78,1.78,0,0,1,125.29,341Z"/><path class="cls-10" d="M103,313.48h28c.48,0,.87.52.87,1.17v4.26c0,.65-.39,1.18-.87,1.18H103c-.48,0-.87-.53-.87-1.18v-4.26C102.09,314,102.48,313.48,103,313.48Z"/><path class="cls-6" d="M131,320.53H103a1.5,1.5,0,0,1-1.31-1.62v-4.26A1.49,1.49,0,0,1,103,313h28a1.48,1.48,0,0,1,1.31,1.61v4.26A1.49,1.49,0,0,1,131,320.53Zm-28-6.61c-.2,0-.43.31-.43.73v4.26c0,.42.23.73.43.73h28c.21,0,.43-.31.43-.73v-4.26c0-.42-.22-.73-.43-.73Z"/><path class="cls-10" d="M131,320.45H103a1.42,1.42,0,0,1-1.24-1.54v-4.26a1.42,1.42,0,0,1,1.24-1.54h28a1.41,1.41,0,0,1,1.24,1.54v4.26A1.41,1.41,0,0,1,131,320.45Zm-28-6.6c-.24,0-.5.33-.5.8v4.26c0,.48.26.81.5.81h28c.24,0,.5-.33.5-.81v-4.26c0-.47-.26-.8-.5-.8Z"/><path class="cls-6" d="M131,320.9H103a1.85,1.85,0,0,1-1.68-2v-4.26a1.85,1.85,0,0,1,1.68-2h28a1.85,1.85,0,0,1,1.68,2v4.26A1.85,1.85,0,0,1,131,320.9Zm-28-6.61a.55.55,0,0,0-.11.36v4.26a.47.47,0,0,0,.13.38H131s.06-.14.06-.37v-4.26a.52.52,0,0,0-.12-.38Z"/><path class="cls-5" d="M106,296.75l1.38.17c.49.07.49-.71,0-.77L106,296c-.5-.06-.49.72,0,.78Z"/><path class="cls-5" d="M108.05,290.63v.69a.39.39,0,0,0,.78,0v-.69a.39.39,0,0,0-.78,0Z"/><path class="cls-5" d="M110.74,297.76l1-.56a.39.39,0,0,0-.39-.67l-1,.56a.39.39,0,0,0,.39.67Z"/><path class="cls-5" d="M106.75,306.71l1.21-.85c.41-.28,0-1-.39-.67l-1.22.85c-.4.29,0,1,.4.67Z"/><path class="cls-5" d="M103.83,300l.87.34c.46.19.66-.57.2-.75l-.86-.34c-.47-.18-.67.57-.21.75Z"/><path class="cls-5" d="M109.48,303.64a.57.57,0,0,1,.41.23c.31.39.86-.16.55-.55a1.32,1.32,0,0,0-1-.46c-.5,0-.5.74,0,.78Z"/><path class="cls-5" d="M111.18,307.3a2.7,2.7,0,0,0,.19,1.51c.2.46.87.06.67-.39a1.7,1.7,0,0,1-.11-.92c.08-.49-.67-.7-.75-.2Z"/><path class="cls-5" d="M115.25,307.44l.68.18a.39.39,0,0,0,.21-.75l-.69-.18a.39.39,0,0,0-.2.75Z"/><path class="cls-5" d="M117.73,299.79a1.31,1.31,0,0,0,.46,1.13c.38.32.94-.22.55-.55a.58.58,0,0,1-.23-.58c0-.5-.74-.49-.78,0Z"/><path class="cls-5" d="M116.74,294.23a1.26,1.26,0,0,0-.2,1c.09.49.84.28.75-.21a.44.44,0,0,1,.12-.39c.3-.41-.37-.8-.67-.4Z"/><path class="cls-5" d="M121,296.51v.69a.39.39,0,0,0,.78,0v-.69a.39.39,0,0,0-.78,0Z"/><path class="cls-5" d="M113.77,295.29l.52.34c.42.28.81-.39.39-.67l-.51-.34c-.42-.28-.81.39-.4.67Z"/><path class="cls-5" d="M115.07,288.83a1,1,0,0,1,.25.59c0,.5.81.5.78,0a1.86,1.86,0,0,0-.48-1.14c-.32-.38-.87.18-.55.55Z"/><path class="cls-5" d="M117,286.48v1a.39.39,0,0,0,.78,0v-1a.39.39,0,0,0-.78,0Z"/><path class="cls-5" d="M121.85,291.05l.33.36c.35.36.9-.19.55-.55l-.33-.36c-.35-.36-.9.19-.55.55Z"/><path class="cls-5" d="M122.62,286.42l1,.06c.5,0,.5-.75,0-.78l-1-.06c-.5,0-.5.75,0,.78Z"/><path class="cls-5" d="M123.72,280.19l.69.69a.39.39,0,0,0,.55-.55l-.69-.69a.39.39,0,0,0-.55.55Z"/><path class="cls-5" d="M126.72,278.19v1.21a.39.39,0,0,0,.78,0v-1.21a.39.39,0,0,0-.78,0Z"/><path class="cls-5" d="M128.13,285.46l.34-.52c.28-.41-.4-.8-.67-.39l-.34.52c-.28.42.39.81.67.39Z"/><path class="cls-5" d="M125.49,293.1l.87-.33c.46-.18.26-.94-.21-.75l-.87.33c-.46.18-.26.93.21.75Z"/><path class="cls-5" d="M128.93,292l.87-.18c.49-.1.28-.85-.21-.75l-.86.18c-.49.1-.29.85.2.75Z"/><path class="cls-5" d="M126.72,295.64v.18a.39.39,0,0,0,.78,0v-.18a.39.39,0,0,0-.78,0Z"/><path class="cls-5" d="M120,307.55l.52-.34c.41-.28,0-.95-.4-.67l-.51.34c-.42.28,0,.95.39.67Z"/><path class="cls-5" d="M119.58,310.42a2.2,2.2,0,0,1,1.06-.57c.49-.11.28-.86-.2-.75a3.11,3.11,0,0,0-1.41.77c-.36.35.19.9.55.55Z"/><path class="cls-5" d="M116.38,310.89l.18.34c.22.45.89,0,.67-.39l-.18-.35c-.23-.44-.9-.05-.67.4Z"/><path class="cls-5" d="M113.42,311.72a1.89,1.89,0,0,0,1.34.19c.49-.1.28-.85-.2-.75a1,1,0,0,1-.75-.11c-.44-.23-.84.44-.39.67Z"/><path class="cls-5" d="M119.85,304.35l1.55-.2c.49-.06.5-.84,0-.78l-1.55.2c-.49.06-.5.84,0,.78Z"/><path class="cls-12" d="M189.51,270.26l25.11-22.7c1.24-1.12-.59-2.95-1.83-1.84l-25.11,22.71c-1.24,1.12.59,2.95,1.83,1.83Z"/><path class="cls-12" d="M217.89,281.84,243,259.14c1.24-1.12-.6-2.95-1.84-1.84L216.06,280c-1.24,1.12.6,2.95,1.83,1.83Z"/><path class="cls-12" d="M187.05,290.42l52.64-51.33c1.2-1.16-.64-3-1.83-1.83l-52.64,51.33c-1.2,1.16.64,3,1.83,1.83Z"/><rect class="cls-7" x="266.37" y="130.81" width="1.13" height="72.44"/><path class="cls-7" d="M271.54,203.25a4.6,4.6,0,1,1-4.6-4.6A4.6,4.6,0,0,1,271.54,203.25Z"/><path class="cls-7" d="M267,218.68a4.13,4.13,0,0,1-2.67-1.11,4.08,4.08,0,0,1-1.1-3,.61.61,0,0,1,.61-.61.61.61,0,0,1,.61.61,2.94,2.94,0,0,0,.74,2.15,2.9,2.9,0,0,0,1.81.75,3.11,3.11,0,1,0,0-6.22.6.6,0,0,1-.6-.61v-3.38a.61.61,0,1,1,1.21,0v2.81a4.33,4.33,0,0,1-.61,8.62Z"/><path class="cls-7" d="M242.86,221.51a.57.57,0,0,1-.47-.47.57.57,0,0,1,.48-.64l24.89-3.67a.56.56,0,1,1,.16,1.11L243,221.51A.48.48,0,0,1,242.86,221.51Z"/><path class="cls-7" d="M290.63,229.79l-.16,0-22.89-12a.57.57,0,0,1-.24-.76.56.56,0,0,1,.76-.24l22.89,12a.56.56,0,0,1,.24.76A.57.57,0,0,1,290.63,229.79Z"/><rect class="cls-1" x="225.54" y="225.26" width="73.61" height="47.36" rx="5.87" transform="translate(46.49 -41.24) rotate(9.86)"/><path class="cls-7" d="M289.6,278.4a6.72,6.72,0,0,1-1.18-.1l-60.53-10.52a6.86,6.86,0,0,1-5.59-7.94l6-34.66a6.87,6.87,0,0,1,7.94-5.59l60.52,10.52a6.86,6.86,0,0,1,5.59,7.93l-6,34.67A6.87,6.87,0,0,1,289.6,278.4ZM235.09,221a5.32,5.32,0,0,0-5.23,4.4l-6,34.67a5.28,5.28,0,0,0,4.32,6.14l60.52,10.52a5.32,5.32,0,0,0,6.14-4.32l6-34.67a5.3,5.3,0,0,0-4.32-6.14L236,221.12A5.69,5.69,0,0,0,235.09,221Z"/><rect class="cls-10" x="228.76" y="228.93" width="67.17" height="40.03" rx="3.75" transform="translate(46.49 -41.24) rotate(9.86)"/><path class="cls-6" d="M288.85,274.58a4.43,4.43,0,0,1-.81-.07l-58.51-10.16a4.7,4.7,0,0,1-3-1.91,4.61,4.61,0,0,1-.78-3.49l5.52-31.78a4.66,4.66,0,0,1,5.4-3.79l58.51,10.16a4.68,4.68,0,0,1,3.8,5.4l-5.53,31.77a4.66,4.66,0,0,1-4.58,3.87Zm-.55-1.6a3.11,3.11,0,0,0,2.33-.52,3.07,3.07,0,0,0,1.27-2l5.52-31.78a3.11,3.11,0,0,0-2.53-3.6l-58.51-10.16a3.12,3.12,0,0,0-3.6,2.53l-5.52,31.78a3.1,3.1,0,0,0,2.53,3.59Z"/><polygon class="cls-1" points="260.42 268.93 275.63 254.99 284.05 273.03 260.42 268.93"/><path class="cls-7" d="M284.94,273.71l-25.65-4.45,16.51-15.14Zm-23.39-5.11,21.61,3.75-7.7-16.51Z"/><polygon class="cls-1" points="230.34 263.7 257.31 238.98 272.24 270.98 230.34 263.7"/><path class="cls-7" d="M273.13,271.66,229.21,264l28.27-25.91Zm-41.66-8.29,39.88,6.93-14.21-30.46Z"/><path class="cls-1" d="M289.38,243.67a3.77,3.77,0,1,1-3.07-4.36A3.77,3.77,0,0,1,289.38,243.67Z"/><path class="cls-7" d="M285.67,247.31a4.52,4.52,0,0,1-.74-.06,4.29,4.29,0,0,1-3.49-5,4.21,4.21,0,0,1,1.75-2.77,4.3,4.3,0,0,1,6,1,4.31,4.31,0,0,1,.72,3.21,4.26,4.26,0,0,1-1.76,2.77A4.2,4.2,0,0,1,285.67,247.31Zm0-7.54A3.26,3.26,0,0,0,283,244.9a3.26,3.26,0,0,0,5.87-1.32h0a3.26,3.26,0,0,0-2.65-3.76A3.66,3.66,0,0,0,285.65,239.77Z"/><rect class="cls-10" x="257.04" y="128.38" width="56.53" height="6.22"/><path class="cls-7" d="M362.69,257H343.93V91.06h18.76Zm-16.91-1.86h15.06V92.92H345.78Z"/><path class="cls-7" d="M362.46,109.27h-18.3V91h18.3ZM346,107.39h14.54V92.86H346Z"/><rect class="cls-7" x="352.37" y="88.52" width="1.88" height="23.21" transform="translate(32.68 279.15) rotate(-45)"/><rect class="cls-7" x="341.7" y="99.18" width="23.21" height="1.88" transform="translate(32.68 279.15) rotate(-45)"/><path class="cls-7" d="M362.46,125.69h-18.3v-18.3h18.3ZM346,123.81h14.54V109.27H346Z"/><rect class="cls-7" x="352.37" y="104.93" width="1.88" height="23.21" transform="translate(21.08 283.96) rotate(-45)"/><rect class="cls-7" x="341.7" y="115.6" width="23.21" height="1.88" transform="translate(21.08 283.96) rotate(-45)"/><path class="cls-7" d="M362.46,142.1h-18.3V123.81h18.3ZM346,140.22h14.54V125.69H346Z"/><rect class="cls-7" x="352.37" y="121.35" width="1.88" height="23.21" transform="translate(9.47 288.77) rotate(-45)"/><rect class="cls-7" x="341.7" y="132.01" width="23.21" height="1.88" transform="translate(9.48 288.78) rotate(-45)"/><path class="cls-7" d="M362.46,158.52h-18.3v-18.3h18.3ZM346,156.64h14.54V142.1H346Z"/><rect class="cls-7" x="352.37" y="137.76" width="1.88" height="23.21" transform="translate(-2.14 293.58) rotate(-45)"/><rect class="cls-7" x="341.7" y="148.43" width="23.21" height="1.88" transform="translate(-2.14 293.58) rotate(-45)"/><path class="cls-7" d="M362.46,174.93h-18.3V156.64h18.3ZM346,173.05h14.54V158.52H346Z"/><rect class="cls-7" x="352.37" y="154.18" width="1.88" height="23.21" transform="translate(-13.74 298.38) rotate(-45)"/><rect class="cls-7" x="341.7" y="164.84" width="23.21" height="1.88" transform="translate(-13.74 298.4) rotate(-45)"/><path class="cls-7" d="M362.46,191.34h-18.3V173.05h18.3ZM346,189.46h14.54V174.93H346Z"/><rect class="cls-7" x="352.37" y="170.59" width="1.88" height="23.21" transform="translate(-25.35 303.19) rotate(-45)"/><rect class="cls-7" x="341.7" y="181.26" width="23.21" height="1.88" transform="translate(-25.35 303.21) rotate(-45)"/><path class="cls-7" d="M362.46,207.76h-18.3v-18.3h18.3ZM346,205.88h14.54V191.34H346Z"/><rect class="cls-7" x="352.37" y="187" width="1.88" height="23.21" transform="translate(-36.96 308) rotate(-45)"/><rect class="cls-7" x="341.7" y="197.67" width="23.21" height="1.88" transform="translate(-36.95 308.01) rotate(-45)"/><path class="cls-7" d="M362.46,224.17h-18.3V205.88h18.3ZM346,222.29h14.54V207.76H346Z"/><rect class="cls-7" x="352.37" y="203.42" width="1.88" height="23.21" transform="translate(-48.56 312.81) rotate(-45)"/><rect class="cls-7" x="341.7" y="214.08" width="23.21" height="1.88" transform="translate(-48.56 312.82) rotate(-45)"/><path class="cls-7" d="M362.46,240.59h-18.3v-18.3h18.3ZM346,238.71h14.54V224.17H346Z"/><rect class="cls-7" x="352.37" y="219.83" width="1.88" height="23.21" transform="translate(-60.17 317.61) rotate(-45)"/><rect class="cls-7" x="341.7" y="230.5" width="23.21" height="1.88" transform="translate(-60.17 317.63) rotate(-45)"/><path class="cls-7" d="M362.46,257h-18.3V238.71h18.3ZM346,255.12h14.54V240.59H346Z"/><rect class="cls-7" x="352.37" y="236.25" width="1.88" height="23.21" transform="translate(-71.78 322.42) rotate(-45)"/><rect class="cls-7" x="341.7" y="246.91" width="23.21" height="1.88" transform="translate(-71.79 322.34) rotate(-44.99)"/><path class="cls-7" d="M395.12,125.44h-18.3v-18.3h18.3Zm-16.42-1.88h14.54V109H378.7Z"/><rect class="cls-7" x="374.36" y="115.35" width="23.21" height="1.88" transform="translate(30.85 307.05) rotate(-45.01)"/><rect class="cls-7" x="385.03" y="104.69" width="1.88" height="23.21" transform="translate(30.82 306.98) rotate(-45)"/><path class="cls-7" d="M378.7,125.44H360.41v-18.3H378.7Zm-16.41-1.88h14.53V109H362.29Z"/><rect class="cls-7" x="357.95" y="115.35" width="23.21" height="1.88" transform="translate(26.04 295.44) rotate(-45.01)"/><rect class="cls-7" x="368.62" y="104.69" width="1.88" height="23.21" transform="translate(26.01 295.38) rotate(-45)"/><path class="cls-7" d="M362.29,125.44H344v-18.3h18.29Zm-16.41-1.88h14.53V109H345.88Z"/><path class="cls-7" d="M345.88,125.44h-18.3v-18.3h18.3Zm-16.42-1.88H344V109H329.46Z"/><rect class="cls-7" x="325.12" y="115.35" width="23.21" height="1.88" transform="translate(16.39 272.16) rotate(-45)"/><rect class="cls-7" x="335.79" y="104.69" width="1.88" height="23.21" transform="translate(16.39 272.16) rotate(-45)"/><path class="cls-7" d="M329.46,125.44H311.17v-18.3h18.29Zm-16.41-1.88h14.53V109H313.05Z"/><rect class="cls-7" x="308.71" y="115.35" width="23.21" height="1.88" transform="translate(11.59 260.56) rotate(-45)"/><rect class="cls-7" x="319.37" y="104.69" width="1.88" height="23.21" transform="translate(11.59 260.56) rotate(-45)"/><path class="cls-7" d="M313.05,125.44h-18.3v-18.3h18.3Zm-16.42-1.88h14.54V109H296.63Z"/><path class="cls-7" d="M295.69,125.44H279.28a1,1,0,0,1-.87-.58.94.94,0,0,1,.2-1L295,107.42l1.33,1.33-14.81,14.81H295.3l16.14-16.14,1.33,1.33-16.41,16.41A1,1,0,0,1,295.69,125.44Z"/><rect class="cls-7" x="302.96" y="104.69" width="1.88" height="23.21" transform="translate(6.78 248.95) rotate(-45)"/><path class="cls-7" d="M362.73,275.28h-18.8V257h18.8Zm-16.87-1.89H360.8V258.86H345.86Z"/><polygon class="cls-7" points="361.08 275 344.21 258.59 345.58 257.26 362.45 273.67 361.08 275"/><polygon class="cls-7" points="345.58 275 344.21 273.67 361.08 257.26 362.45 258.59 345.58 275"/><path class="cls-7" d="M362.73,340.93h-18.8V322.64h18.8Zm-16.87-1.88H360.8V324.52H345.86Z"/><polygon class="cls-7" points="361.08 340.66 344.21 324.24 345.58 322.91 362.45 339.33 361.08 340.66"/><polygon class="cls-7" points="345.58 340.66 344.21 339.33 361.08 322.91 362.45 324.24 345.58 340.66"/><path class="cls-7" d="M362.73,290.13h-18.8V271.84h18.8Zm-16.87-1.88H360.8V273.72H345.86Z"/><polygon class="cls-7" points="361.08 289.86 344.21 273.44 345.58 272.12 362.45 288.53 361.08 289.86"/><polygon class="cls-7" points="345.58 289.86 344.21 288.53 361.08 272.12 362.45 273.44 345.58 289.86"/><path class="cls-7" d="M362.73,306.55h-18.8v-18.3h18.8Zm-16.87-1.88H360.8V290.13H345.86Z"/><polygon class="cls-7" points="361.08 306.27 344.21 289.86 345.58 288.53 362.45 304.94 361.08 306.27"/><polygon class="cls-7" points="345.58 306.27 344.21 304.94 361.08 288.53 362.45 289.86 345.58 306.27"/><path class="cls-7" d="M362.73,323h-18.8V304.67h18.8Zm-16.87-1.88H360.8V306.55H345.86Z"/><polygon class="cls-7" points="361.08 322.69 344.21 306.27 345.58 304.94 362.45 321.36 361.08 322.69"/><polygon class="cls-7" points="345.58 322.69 344.21 321.36 361.08 304.94 362.45 306.27 345.58 322.69"/><path class="cls-6" d="M152.86,189"/><path class="cls-6" d="M152.86,190.53a1.56,1.56,0,0,0,0-3.11,1.56,1.56,0,0,0,0,3.11Z"/><path class="cls-6" d="M321.56,156.48"/><path class="cls-6" d="M321.56,158a1.56,1.56,0,0,0,0-3.11,1.56,1.56,0,0,0,0,3.11Z"/><path class="cls-6" d="M391.39,267.79h.69"/><path class="cls-6" d="M391.39,269.35h.69a1.56,1.56,0,1,0,0-3.11h-.69a1.56,1.56,0,1,0,0,3.11Z"/><path class="cls-6" d="M91.33,290.61"/><path class="cls-6" d="M91.33,292.17a1.56,1.56,0,0,0,0-3.12,1.56,1.56,0,0,0,0,3.12Z"/><path class="cls-6" d="M240,141.27"/><path class="cls-6" d="M240,142.83a1.56,1.56,0,0,0,0-3.11,1.56,1.56,0,0,0,0,3.11Z"/></g></svg>