<svg xmlns="http://www.w3.org/2000/svg" xmlns:xlink="http://www.w3.org/1999/xlink" viewBox="0 0 2331 987"><defs><style>.cls-1,.cls-7{fill:none;}.cls-2{fill:#2e3192;}.cls-3{clip-path:url(#clip-path);}.cls-4{fill:#1e257c;}.cls-5{fill:#272e82;}.cls-6{fill:#4d58aa;}.cls-7{stroke:#515db7;stroke-miterlimit:10;}.cls-8{fill:#515daf;}.cls-9{fill:#3f469e;}</style><clipPath id="clip-path" transform="translate(432 271)"><rect class="cls-1" width="1500" height="500"/></clipPath></defs><g id="BACKGROUND"><rect class="cls-2" x="432" y="271" width="1500" height="500"/></g><g id="OBJECTS"><g class="cls-3"><path class="cls-4" d="M-8.91-271s-111,184.61-13.67,356.09C72,251.86,280.5,247.22,373.14,177.74s127.4-243.21,51-301.11C358.54-173,243.44-104.84,215.64-144.22S264.28-271,319.87-271Z" transform="translate(432 271)"/><path class="cls-5" d="M-432,716s308.05-48.49,325.17-174-25.68-293.79,71.3-313.76S149.88,342.34,244,308.12s187.43,48.23,187.43,188.25S343.48,716,343.48,716Z" transform="translate(432 271)"/><path class="cls-5" d="M1467.23-50.46s-144.16-2.85-192.74,92.06c-42.22,82.48-29.74,161.1-106.92,209.68S1038.1,305,1036.11,402.15,1058.09,599,1167.57,576s168.29-10.13,191.3,58.86,168.77,92,225,35.75,17.9-225,130.41-225,176.42-100.71,184.11-170.42C1913.76,136.21,1624.81-76,1467.23-50.46Z" transform="translate(432 271)"/><path class="cls-6" d="M826.24,531c-17.2-29.06,12.83-100.36,91.21-132.86s140.62-40.09,175.87-40.14c74.55-.11,120.37,83.15,122.28,173Z" transform="translate(432 271)"/><path class="cls-7" d="M1265.56,530.94l11.7-69.73c2.65-15.78,5.57-32.23,15.11-45.07,11.81-15.89,31.71-23.5,51.05-27.72a224.86,224.86,0,0,1,75-3.52c12.9,1.57,26.36,4.6,35.9,13.43,11.5,10.64,14.84,27.22,17.57,42.65.54,3.06,1.05,6.38-.39,9.14-2,3.83-6.83,5-11.09,5.77-13.17,2.38-28.38,4.24-38.48-4.54-3.24-2.82-5.6-6.49-7.92-10.12-4.77-7.47-9.58-15-12.65-23.35-8.75-23.73-2.25-50.27,6.87-73.86,2.88-7.48,6.09-14.95,11-21.27,6.41-8.19,15.35-13.94,24.06-19.64,39.31-25.71,78.7-55,100.09-96.84,21.57-42.19,22.08-91.7,20.71-139.06" transform="translate(432 271)"/><path class="cls-7" d="M22.62-52.17C40.13-7.2,84.21,24.23,98.3,70.37c9,29.64,4.49,61.43,4.81,92.41.14,13.1,1.12,26.52-2.88,39s-14.56,24-27.65,24.3c-6,.15-12.6-2.8-14.21-8.54s5.3-12.49,10.25-9.19c10.57,19.53,6.79,43.53.86,64.93S55.66,316.52,58.9,338.49c2.83,19.19,14.09,37.85,9.85,56.79C64.2,415.61,43.06,428.1,22.6,432.06s-41.7,1.88-62.19,5.64" transform="translate(432 271)"/><path class="cls-7" d="M861-32s40,104,169,99,49-276,23-296S782-333,861-32Z" transform="translate(432 271)"/><path class="cls-4" d="M1064.83,19.91a151.89,151.89,0,0,0-31.2,65.25c-2.08,10.06-3.29,20.72-9,29.23-8.06,11.92-23.9,17.79-29.42,31.08-5,11.92.19,25.5,6.21,36.93A241.25,241.25,0,0,0,1023,216.3a84.09,84.09,0,0,1,47.73-53.87c8.2-3.43,17.18-5.67,23.94-11.46,8.67-7.41,12-19.15,14.89-30.19,5.1-19.4,10.18-40,4.38-59.21-4.1-13.59-13.26-25-19.93-37.52s-10.74-28.12-4.14-40.69Z" transform="translate(432 271)"/><path class="cls-4" d="M1036-40.23l31.87-1.49c-28.14,13.9-44.73,43-63.61,68.07s-46.39,49.21-77.52,45.22c-8.62-1.1-16.81-4.34-25.29-6.2a81.09,81.09,0,0,0-53.73,6.94c5.58-14.42,24.59-16.54,38.26-23.77,9.52-5,16.95-13.17,24.23-21.1,18-19.65,36.75-39.3,59.77-52.8S1036-40.23,1036-40.23Z" transform="translate(432 271)"/><path class="cls-4" d="M1027.63-30.69c67.38-16.07,138.56-18.18,201.68-49.23,1.45-.71,1.29-6.92.34-6.45-63,31-134,33-201.17,49.05-1.76.42-1.49,6.78-.85,6.63Z" transform="translate(432 271)"/><path class="cls-4" d="M1164.61-63.3c-6,1.09-11.52,4.51-16.82,7.44-8.14,4.48-16.61,8.14-24.88,12.36-18.67,9.53-35.17,22.43-42.37,42.71-.42,1.18-.34,7.64.65,4.84,7.51-21.13,25.6-33.41,44.89-42.85,11.21-5.49,25.38-15.64,37.68-17.87,1.71-.31,1.59-6.76.85-6.63Z" transform="translate(432 271)"/><path class="cls-8" d="M233.93,369.29c-7.24,17.64-4.7,37.33-5.73,56.17a273.41,273.41,0,0,0-.14,32.64c.73,11.17-.07,21.57-1.47,32.67-2.3,18.2,3,35.47,3.95,53.44,1.13,22.16-.47,44.46-.14,66.63,0,3.42,5.25,3.42,5.3,0,.33-22.15.25-44.48-.22-66.63-.39-18-2.59-37.17.08-55,3-20.25.08-40.48,1.7-60.83,1.56-19.52.66-38.91,1.6-58.39.14-3.06-3.94-3.08-4.93-.66" transform="translate(432 271)"/><path class="cls-8" d="M251.92,374.9c.39,10.43-1.44,21.1-1.5,31.6-.07,10.83-1,21.54-1.08,32.34s0,21.62-.08,32.43-1.88,21.32-2.52,32.11c-1.23,21.19-.2,42.72-.22,63.94,0,5.06.72,10.59.2,15.6-.4,3.88-1.53,7.78-2.06,11.67-.88,6.33-4.68,16-.91,22,3.31,5.28,11.85.14,8.3-4.85-2-2.73.57-9.35.82-12.47.32-4.16.46-8.22,1.06-12.35,1.3-9,.3-18.65.29-27.78,0-20.65-1.14-41.64.49-62.22.79-10,1.74-19.45,1.7-29.5-.05-11.41-.75-22.94-.21-34.34.89-18.72,3.42-40.28-2.45-58.4-.32-1-1.88-.85-1.83.24" transform="translate(432 271)"/><path class="cls-8" d="M265,369.13c-1,11.41,1.38,22.44,1.69,33.83.31,11.12-.42,22.25.11,33.37,1.1,23.08,3.76,45.75,3.7,68.92,0,11.09.48,22.36-.24,33.43-.62,9.56-2.89,18.88-3.3,28.44-.4,9.23-1.71,18.32-2.49,27.51-.86,10-3,20.17-2.87,30.24.06,6.85,11,6.8,10.61,0-1.11-19.13,3.95-38.58,4.39-57.75.21-9.53,2.6-18.9,3.16-28.44.64-11.08.08-22.33,0-33.43-.07-23.18-2.86-45.84-4.08-68.92-.57-10.67.1-21.34-.26-32-.39-11.9-3.46-23.44-5-35.19a2.73,2.73,0,0,0-5.45,0" transform="translate(432 271)"/><path class="cls-8" d="M287.93,377.38c-.47,11.17-1.39,22.14-1.27,33.37.12,10.61.69,21.22,1,31.82.54,21,.16,41.95,0,62.92-.12,20-1,39.8-1,59.79q0,16.43,0,32.85c0,4.9.23,9.88,0,14.77-.25,5.15-1.67,10.12-1.94,15.27-.31,5.78,9,5.84,9,0,.07-10,1.35-20,1.35-30q0-15.68,0-31.35c0-20.49.79-40.8.62-61.29s-.08-40.95-.88-61.4c-.88-22.28-3.3-44.49-4.35-66.71a1.22,1.22,0,0,0-2.44,0" transform="translate(432 271)"/><path class="cls-8" d="M305.79,376.55c-.67,11.46.4,22.86.35,34.32-.06,11.75-.23,23.49-.26,35.24-.06,23.58,2.15,47.1,1.44,70.67-.67,22.07-1.71,44.14-.09,66.2a117.73,117.73,0,0,1-.37,24.25c-1,7.67-2.46,15.63-2.29,23.41.13,5.64,9,5.62,8.75,0-.74-15.66,4-31.09,2.35-46.89-1.13-10.61-.79-21.65-.93-32.35-.15-11.62.51-23,.82-34.62.64-23.56-1.81-47.1-1.91-70.67,0-11.25.17-22.54-.34-33.78-.57-12.18-3.18-23.72-4.51-35.78a1.51,1.51,0,0,0-3,0" transform="translate(432 271)"/><path class="cls-8" d="M324.76,381.5c-2.6,21.62-1.71,44.3-1.65,66.07.06,23.19,3.42,46,3,69.25-.21,11.38.81,22.74.82,34.13,0,10.6-1.54,21.08-1.62,31.64-.07,9.95-1.91,19.71-2.64,29.59-.35,4.75.49,9-.3,13.72-.71,4.25-.33,8.68-.33,13,0,5.45,8.46,5.46,8.46,0a76.7,76.7,0,0,1,.72-12.89c.82-4.85-.51-9.62,0-14.47,1.06-9.27,2.46-18.42,2.61-27.78.17-10.48,1.67-20.82,1.63-31.32,0-11.89-1-23.74-.84-35.61.23-22.75-3.27-45.1-3.56-67.82-.15-11.52.06-23-.33-34.56-.19-5.59-.09-11.28-.61-16.85-.52-5.41-1.93-10.64-2.38-16.09a1.51,1.51,0,0,0-3,0" transform="translate(432 271)"/><path class="cls-6" d="M-35.28-18.33a5.91,5.91,0,0,0-2.9,2.62c-1.4,2.88-1,6.26-.54,9.43,2.88,20.59,5.8,41.34,12.59,61,10.35,30,29.22,52.42,58.91,64.19,42.23,16.73,92,14.74,132.52-6,31.34-16.08,48.1-43.47,68.12-71,19.42-26.74,44.46-12.52,72.1-13,19.9-.39,38-12.35,48-29.32a215.68,215.68,0,0,0,11.33-22.12c-24-5.36-55.42-.06-80.17.22L145-20.89,50.65-19.84.7-19.29c-6.25.07-27.67-3.11-36,1" transform="translate(432 271)"/><path class="cls-6" d="M1272.89,85.33c6-.07,16.7,9.13,17.6,15.09.59,3.89-2.44,6.92-6.24,5.83a27.8,27.8,0,0,1-15.88-12C1266,90.69,1268.93,85.38,1272.89,85.33Z" transform="translate(432 271)"/><path class="cls-6" d="M1332.19,104.08c-2.93-.71-5.74-1.23-8.44-2.1a4.85,4.85,0,0,1-3.47-4.46c-.15-2.12,1.11-3.58,2.78-4.71,4.61-3.1,14.1-3.12,18.78,0,3.53,2.32,3.45,7.1-.47,8.88C1338.55,102.93,1335.3,103.29,1332.19,104.08Z" transform="translate(432 271)"/><path class="cls-6" d="M1257.24,101.71a55.27,55.27,0,0,1-.94,5.88,4.27,4.27,0,0,1-4.19,3.33,4.47,4.47,0,0,1-4.65-2.72c-2.21-5-3.57-10-2.49-15.55.61-3.12,2.43-5.09,5-5.31s4.9,1.57,5.88,4.66a13.48,13.48,0,0,1,.55,2.32C1256.71,96.61,1256.93,98.91,1257.24,101.71Z" transform="translate(432 271)"/><path class="cls-6" d="M1309.59,65.65c2.21.2,4.36.31,6.48.62,2.82.41,4.65,2,4.94,4.11.35,2.41-1,4.59-3.7,5.76a23.33,23.33,0,0,1-14.23,1.48,6.42,6.42,0,0,1-5-5.68c-.08-2.55,1.53-4.5,4.5-5.43a9.83,9.83,0,0,1,1.85-.39C1306.17,65.93,1307.91,65.8,1309.59,65.65Z" transform="translate(432 271)"/><path class="cls-6" d="M1426.25,100.1c3.63.77,7.32,1.34,10.88,2.37,3,.89,4.54,3.2,4.31,5.58s-2.17,4.1-5.34,4.63a24.49,24.49,0,0,1-13.76-1.82,8.59,8.59,0,0,1-3.45-2.78,4.6,4.6,0,0,1,3-7.22,35.63,35.63,0,0,1,4.27-.35Z" transform="translate(432 271)"/><path class="cls-6" d="M1298,108.39c.36-2.68.6-5.7,1.2-8.66s2.34-4.54,4.67-4.73,4.45,1.28,5.48,4.14a20.13,20.13,0,0,1,0,13.12c-1,3.13-3.12,4.75-5.64,4.62s-4.62-2.13-5.31-5.32C1298.11,110.64,1298.1,109.67,1298,108.39Z" transform="translate(432 271)"/><path class="cls-6" d="M1342.75,63.12c0,4.25-3.47,6.44-6.82,4.85-4.14-2-9.48-10.86-9.3-15.35.09-2.41,1.11-4.16,3.4-4.93a4.43,4.43,0,0,1,5.42,1.93c2.33,3.59,4.51,7.28,6.63,11A8.12,8.12,0,0,1,1342.75,63.12Z" transform="translate(432 271)"/><path class="cls-6" d="M1372.92,87.16a84.07,84.07,0,0,1-9.53-2.06,7.79,7.79,0,0,1-4.06-3.3c-2.2-4,0-7.75,4.57-7.78a25.93,25.93,0,0,1,14,4.22,4.17,4.17,0,0,1,1.94,4.78,4.87,4.87,0,0,1-4,3.69,19.22,19.22,0,0,1-2.85.21Z" transform="translate(432 271)"/><path class="cls-6" d="M1496.74,59.87c-.1,1.27-.12,2.54-.32,3.79-.45,2.79-2.11,4.47-4.58,4.74a5.69,5.69,0,0,1-5.78-3.72,17.91,17.91,0,0,1-.87-5.84,50.63,50.63,0,0,1,1.18-8.47,4.4,4.4,0,0,1,4-3.81,4.29,4.29,0,0,1,4.72,3.24c.92,3.26,1.33,6.65,2,10Z" transform="translate(432 271)"/><path class="cls-6" d="M1520.72,64.37a22.87,22.87,0,0,1,2.81-11.48c1.61-2.77,4-3.87,6.34-3,2,.81,3.54,2.4,3.19,4.56a88.41,88.41,0,0,1-3,13.43,4.87,4.87,0,0,1-6,3.56c-2.25-.56-3.37-2.54-3.38-5.92Z" transform="translate(432 271)"/><path class="cls-6" d="M1372.42,48A27.41,27.41,0,0,1,1385,53.39a4.75,4.75,0,0,1,1.49,5.81,4.6,4.6,0,0,1-5.43,2.47c-3.61-.89-7.16-2-10.69-3.22a7.7,7.7,0,0,1-2.54-1.73,4.87,4.87,0,0,1-1.52-5.81C1367.24,48.6,1369.1,47.79,1372.42,48Z" transform="translate(432 271)"/><path class="cls-6" d="M1478.67,114.94c-3.31-.81-6.68-1.45-9.9-2.51a7.54,7.54,0,0,1-3.46-2.75,4.66,4.66,0,0,1,3-7.56c5.63-.92,10.75.93,15.16,4.3,1,.79,1.31,3.11,1.25,4.69-.07,2-1.74,2.93-3.58,3.33a17,17,0,0,1-2.38.16Z" transform="translate(432 271)"/><path class="cls-6" d="M1445.92,59.5a30.59,30.59,0,0,1-1.44,4.62,3.83,3.83,0,0,1-6.53.78c-2.68-3.74-5.21-7.64-5.69-12.41-.43-4.26,3.06-7.45,6.58-5.74a9.22,9.22,0,0,1,3.82,4A84,84,0,0,1,1445.92,59.5Z" transform="translate(432 271)"/><path class="cls-6" d="M1254.36,48c3.12,0,5.17,2.1,4.84,5.19-.15,1.36-.51,3.12-1.45,3.91a60.92,60.92,0,0,1-9,6.45c-1.79,1-4,.39-5.43-1.26s-1.3-3.34-.61-5.17C1244.44,52.45,1250.25,47.92,1254.36,48Z" transform="translate(432 271)"/><path class="cls-6" d="M1289,56.6c-3.22-1.05-6.47-2-9.65-3.19a6.63,6.63,0,0,1-2.23-1.75,5,5,0,0,1-1.1-6.11,4.61,4.61,0,0,1,5.45-2.48,67,67,0,0,1,10.6,4.08,4.55,4.55,0,0,1,2.29,5.71C1293.67,55,1291.89,56.15,1289,56.6Z" transform="translate(432 271)"/><path class="cls-6" d="M1271.6,58c3.81-.07,5.66,1.16,6.28,3.93.71,3.2-.38,5.95-3.57,6.84a43.63,43.63,0,0,1-11,1.57c-3.2.06-4.52-3.12-3.23-6.08C1262.43,58.9,1267.11,58.33,1271.6,58Z" transform="translate(432 271)"/><path class="cls-6" d="M1513.58,88.63a30,30,0,0,1-.69,5.82,8.73,8.73,0,0,1-2.7,4.24c-2.63,2-6.42.73-6.62-2.49a67.26,67.26,0,0,1,1-13.86c.31-2,2.33-3.24,4.6-3s3.49,1.82,3.87,4C1513.3,85,1513.39,86.78,1513.58,88.63Z" transform="translate(432 271)"/><path class="cls-6" d="M1469.08,69.89c2.67-.06,4.82,1.28,5.45,3.39a4.3,4.3,0,0,1-2.84,5.39A57.73,57.73,0,0,1,1460.62,82a4.72,4.72,0,0,1-5.45-3.28c-.67-2.28.13-4,3.13-5.37,3.42-1.56,7-2.73,10.54-4.06Z" transform="translate(432 271)"/><path class="cls-6" d="M1542.53,90.84A46.32,46.32,0,0,1,1548.3,92a5.37,5.37,0,0,1,3.6,6.21c-.45,2.48-2.14,4-5.21,3.82a52.32,52.32,0,0,1-9.82-1.29,4.27,4.27,0,0,1-3.39-4.84,4.9,4.9,0,0,1,4.26-4.5C1539.13,91.13,1540.56,91.07,1542.53,90.84Z" transform="translate(432 271)"/><path class="cls-6" d="M1384,104.39c3.38.5,5.46,1.78,6.17,4.2a5.08,5.08,0,0,1-3.08,6.07,32.56,32.56,0,0,1-8.34,2.52c-2.37.4-4.91-1.76-5.55-4a4.82,4.82,0,0,1,2.63-5.8A85.4,85.4,0,0,1,1384,104.39Z" transform="translate(432 271)"/><path class="cls-6" d="M1414.38,69.21a39.69,39.69,0,0,1,5.49,1,4.77,4.77,0,0,1-.44,9.35,45.42,45.42,0,0,1-9.88-.46,4.5,4.5,0,0,1-3.66-4.66,5.41,5.41,0,0,1,4.32-4.79C1411.37,69.39,1412.58,69.37,1414.38,69.21Z" transform="translate(432 271)"/><path class="cls-6" d="M416.46,138a171,171,0,0,0,98.67-31.32,173.14,173.14,0,0,0,51.14-57.51C579.36,24.94,585-.75,582.67-25.14c-2.35-24.23-9.3-47.17-20.11-66.34-12.46-22.09-29.19-38-49.72-47.21l-.82,1.83c37.85,17,63.52,58.86,68.66,111.92C585.23,22,559,73,514,105a169,169,0,0,1-97.51,31,165.1,165.1,0,0,1-28.8-2.51c-29.18-5.14-55.49-18.7-80.93-31.82-19.45-10-39.56-20.4-60.89-27A187.39,187.39,0,0,0,164.73,68,201.33,201.33,0,0,0,88,95.11l1,1.72c48-28.76,105-36.15,156.21-20.28,21.17,6.55,41.2,16.88,60.57,26.87,25.58,13.18,52,26.82,81.5,32A167.17,167.17,0,0,0,416.46,138" transform="translate(432 271)"/><path class="cls-7" d="M423.5,530.5s97-106,223-93,45,148,252,164" transform="translate(432 271)"/></g><path class="cls-9" d="M530.71,53a2.93,2.93,0,0,0-2.85-3.28c-.62,0-2.12.15-2.35.91-.42,1.36-.91,3-.31,4.38a3.1,3.1,0,0,0,3,1.9,4.16,4.16,0,0,0,3.18-1.39,1.76,1.76,0,0,0-.05-2.45c-.64-.59-3.32.5-2.71,1.06.42.38.32.73.23,1.24a1.12,1.12,0,0,1-.2.33l.45-.34c0,.06-.84-.88-.81-.83-.8-1.33-.28-3,.14-4.35l-2.36.9a2.12,2.12,0,0,1,1.81,2.36c-.11.92,2.78.37,2.87-.44Z" transform="translate(432 271)"/><path class="cls-9" d="M522.58,78.05c.15-2.17-.48-4.54-3.08-4.22-2.44.31-3.74,1.7-3.57,4.17a4.87,4.87,0,0,0,1.15,3.16,2.94,2.94,0,0,0,2.89.32c1-.27,1.93-.7,2.19-1.76a4.6,4.6,0,0,0-.58-3c-.32-.64-3.08.41-2.9.77a5.62,5.62,0,0,1,.6,1.77,12.61,12.61,0,0,1-.13,1.55c-.36.51,0,.4,1-.31l-.37-.35c-.15-.32-.36-.58-.49-.92a6.18,6.18,0,0,1-.4-1.8,5,5,0,0,1,.13-1.93,6.15,6.15,0,0,0,.36-.76l-.84.27a1,1,0,0,1,.37.29,6.15,6.15,0,0,1,.82,3.58c0,.29,2.84,0,2.9-.78Z" transform="translate(432 271)"/><path class="cls-9" d="M513,57.27c0-1.71-.06-3.86-1.69-4.89a4.34,4.34,0,0,0-4.26,0c-3.59,2,.38,7.34,2.45,9a2.09,2.09,0,0,0,2.7-.52,8.55,8.55,0,0,0,1.54-3c.34-1.09-2.58-.71-2.9.33a7.25,7.25,0,0,1-1.36,2.52l2.7-.52A9.51,9.51,0,0,1,508.76,55c-.05-.2-.22-1.51-.32-1.45.22-.13.78.41.89.53.8.89.79,2.38.8,3.48,0,1.29,2.91.7,2.91-.33Z" transform="translate(432 271)"/><path class="cls-9" d="M517.86,30.66a9.67,9.67,0,0,0-3-7c-.59-.57-2.2.16-2.69.58-2.26,2-1.62,5.73-.38,8.13a2.48,2.48,0,0,0,2.67,1.45c1.1-.11,2.6-.57,2.91-1.76.2-.72-2.65-.32-2.86.48l.61-.31-.44-.64a8.23,8.23,0,0,1-.43-1.11,14,14,0,0,1-.54-2.12c-.26-1.57-.16-3.16,1.11-4.26l-2.68.58A9.33,9.33,0,0,1,515,31.43c0,.59,2.91.13,2.9-.77Z" transform="translate(432 271)"/><path class="cls-9" d="M496.28,42.8a3.07,3.07,0,0,0-.94-4.67c-1.89-1.07-4.42-.06-5.53,1.68-1.42,2.23-.15,4.67,1.43,6.46,1.43,1.62,4.36,1.77,5.41-.39.71-1.45-2.22-1.42-2.76-.3q.71-.12.21-.39a2.52,2.52,0,0,1-.47-.51c-.25-.31-.48-.66-.7-1a3.36,3.36,0,0,1-.72-2.89c.73-2.15,2.52.13,1.65,1.18-1.15,1.41,1.6,1.81,2.42.82Z" transform="translate(432 271)"/><path class="cls-9" d="M496.07,76.63a24.19,24.19,0,0,0-2.63-6.22c-.47-.77-2.32,0-2.78.46a7.13,7.13,0,0,0-.18,9.93c.5.54,2-.1,2.48-.41a4.14,4.14,0,0,0,1.76-4.89c-.28-.78-3.15.07-2.9.78a3.22,3.22,0,0,1-1.11,3.9l2.48-.41a6.55,6.55,0,0,1,.12-9l-2.77.45a24.19,24.19,0,0,1,2.63,6.22c.21.76,3.11,0,2.9-.78Z" transform="translate(432 271)"/></g></svg>